<svg xmlns="http://www.w3.org/2000/svg" viewBox="0 0 1200 1200"><path fill="#fff" d="M600 0l530.3 300v600L600 1200 69.7 900V300z"/><path fill="#8ed6fb" d="M1035.6 879.3l-418.1 236.5V931.6L878 788.3l157.6 91zm28.6-25.9V358.8l-153 88.3V765l153 88.4zM163.7 879.3l418.1 236.5V931.6L321.3 788.3l-157.6 91zm-28.6-25.9V358.8l153 88.3V765l-153 88.4zM152.3 326.8L580.8 84.5v178.1L306.1 413.6l-2.1 1.2-151.7-88zm894.5 0L618.2 84.5v178.1l274.7 151 2.1 1.2 151.8-88z"/><path fill="#1c78c0" d="M580.8 901.8L325 760.2V479.6l255.8 147.6v274.6zm37.4 0l255.8-141.5V479.6L618.2 627.3v274.5zM342.6 446.7l256-140.7 255.9 140.7-256 147.8-255.9-147.8z"/></svg>
